<svg xmlns="http://www.w3.org/2000/svg" viewBox="0 0 13.54 12.85"><path fill="#ffffff" d="M2.1 6.12a2.06 2.06 0 0 1-.8-.38 2.34 2.34 0 0 1-.48-.8C.61 4.37.17 3.9.26 3.35s.18-.62.46-.79S1.29 2 1.7 2a5.51 5.51 0 0 1 .94 0c.08 0 0-.36.23-.48a1.3 1.3 0 0 1 .82-.29c.32 0 .43-.1.76.07s.47.34.5.55.56 0 .56 0 .14-.14.46 0 .45.09.67.33a4.29 4.29 0 0 1 .38.6c.14.2.25.31.14.55s-.1.27-.25.11-.4-.8-.56-.95-.57-.33-.77-.23-.62.05-.7.12a.59.59 0 0 0 0 .72c.25.25.38.52.58.69s.41.37.44.53 0 .21-.21.07a3 3 0 0 1-.65-.53 3.23 3.23 0 0 1-.72-1.09c-.09-.43.36-.62.28-.8s-.51-.5-.81-.39-.64.11-.77.3a2.12 2.12 0 0 0-.22 1.05 2.1 2.1 0 0 0 .2.95c.14.14.59.49.38.53A.7.7 0 0 1 2.71 4a3.73 3.73 0 0 1-.17-.89c0-.17.15-.73 0-.78a1 1 0 0 0-.89 0 2.43 2.43 0 0 0-.93.75 1 1 0 0 0 .07 1c.28.42.39 1.19.6 1.28A4.06 4.06 0 0 1 2 5.8c.13.09.1.32.1.32z"/><path fill="#ffffff" d="M.18 4.8c0-.13.42-.58.57-.52s.3.35.24.44S.6 4.85.65 5a3.16 3.16 0 0 0 .57 1 3.27 3.27 0 0 0 .91.71 7.41 7.41 0 0 0 1.78.51 9.58 9.58 0 0 0 1.37.35c.53 0 1.83.11 2.33.12a5 5 0 0 0 1.84-.27c.4-.2 1.32-.56 1.74-.78s1-.31 1.19-.63a2.27 2.27 0 0 0 .36-.7c.05-.19.16-.43.33-.32s.37.14.41.51a6.7 6.7 0 0 1 0 1.42A5.76 5.76 0 0 1 13 8.55 15.29 15.29 0 0 1 11.84 10a5.39 5.39 0 0 1-1.5 1.13c-.41.14-1.2.47-1.56.6a15 15 0 0 1-2.13.17c-.44 0-1.42 0-1.91-.08a6.11 6.11 0 0 1-1.95-.67 6.52 6.52 0 0 1-1.4-1.46 4.41 4.41 0 0 1-.93-1.44A14.56 14.56 0 0 1 0 6.8a7.37 7.37 0 0 1 0-1.15c0-.3.2-.62.33-.57s.26.34.24.69a3.56 3.56 0 0 0 0 1 4.51 4.51 0 0 0 .31 1.37 4.43 4.43 0 0 0 .94 1.39A7.55 7.55 0 0 0 3 10.78a3.11 3.11 0 0 0 1.55.61 10.21 10.21 0 0 0 1.6.09 13.79 13.79 0 0 0 2.4-.09 9.48 9.48 0 0 0 2-.84 5.92 5.92 0 0 0 1.59-1.45 4.09 4.09 0 0 0 .67-1.37 13.56 13.56 0 0 0 .29-1.36c0-.31.08-.55 0-.57s-.27.33-.44.56l-.17.24a9.5 9.5 0 0 1-1.55.81A12.52 12.52 0 0 1 9.25 8a14.05 14.05 0 0 1-2.06.12 11 11 0 0 1-2.4-.21c-.56-.15-1.62-.36-2.16-.57a4.09 4.09 0 0 1-1.43-.67 4.23 4.23 0 0 1-.86-1.13 2.56 2.56 0 0 1-.16-.74z"/><path fill="#ffffff" d="M4.77 12.24c0 .14.18.47.41.49a9.67 9.67 0 0 0 1.08.11h1c.25 0 1.08-.06 1.33-.1s.54-.08.54-.33v-.73c0-.21 0-.34-.19-.29s-.41 0-.43.22.2.34 0 .52a1.25 1.25 0 0 1-.9.31 5.19 5.19 0 0 1-1.34 0c-.49-.09-.85 0-.95-.18s.09-.53 0-.58-.47-.15-.55-.1 0 .66 0 .66zM3.92 4.77c.11.07.23.23.07.31a3.07 3.07 0 0 0-.73.35c-.22.2-.52.33-.38.57s.13.58.46.61a2.76 2.76 0 0 0 .78.07l.6-.15c.19 0-.38.22-.69 0s-.65-.29-.53-.59.16-.6.41-.68.75-.25.74-.14-.11.24-.33.36-.54 0-.44.31.2.44.45.45.42 0 .51-.12a3.5 3.5 0 0 1 .73-.94 10.93 10.93 0 0 1 1-.76 10.23 10.23 0 0 0 1-.56 2.65 2.65 0 0 1 1-.4c.43-.07.43-.13.82-.16a3.06 3.06 0 0 1 1.25 0 3.43 3.43 0 0 1 1 .32c.33.18.34.06.73.45s.41.41.51.65.14.51 0 .48-.31-.29-.35-.22.12.26.08.54-.12.64-.3.71-.31.09-.13-.23.41-.39.24-.65-.28-.42-.53-.32a1.76 1.76 0 0 0-.69.55c-.17.22-.38.28-.43.64s.06.45 0 .69-.26.48-.35.42 0-.14-.07-.35.16-.31 0-.39-.27-.19-.53-.08A.81.81 0 0 0 9.3 7a1.63 1.63 0 0 0-.18.62c0 .21-.27.56-.31.3s.13-.49.17-.75a.82.82 0 0 1 .23-.48c.06-.05-.25 0-.4.18s-.24.16-.39.43-.42.51-.47.43a.09.09 0 0 1 0-.06 1 1 0 0 1 .2-.43c.11-.16-.07 0-.27 0a.78.78 0 0 1-.42 0l.14.14c.14.14 0 0 .12.15s.2.29.14.32-.18-.08-.32-.2-.17-.28-.4-.39-.27-.23-.48-.2-.42 0-.13.07a3.54 3.54 0 0 1 .59.25c.1.08.27.12.28.26s-.06.26-.26.09-.1-.25-.37-.36-.22-.3-.71-.29-.68-.14-.79 0-.23 0-.1.22.17.22.22.3-.26.07-.37-.1a3.71 3.71 0 0 1-.25-.42c0-.08 0-.18.22-.23a.48.48 0 0 0 .28-.19 2.34 2.34 0 0 0-.47.16 1.75 1.75 0 0 1-1 .13 1.23 1.23 0 0 1-.8-.16c-.23-.21-.47-.37-.46-.64s0-.47.25-.66.38-.49.62-.49a2.15 2.15 0 0 0 .51-.23zm1.34 1.71c0 .1.09.06.09.06a1.87 1.87 0 0 0 .5.25 1.74 1.74 0 0 0 .78 0 1.82 1.82 0 0 1 .73.21c.23.07.24 0 .64 0a2.5 2.5 0 0 0 .69-.29c.19-.06.46-.31.4-.37a1 1 0 0 0-.34-.2c-.18-.06-.19-.31-.31-.62s.25-1.08.38-1.37.34-.33.21-.38-.52.15-.76.24-1 .58-1.33.72a8.8 8.8 0 0 0-1.2.94 1.69 1.69 0 0 0-.51.68.46.46 0 0 0 .03.13zm4.28-2.83a3.86 3.86 0 0 0-.54.73 1.61 1.61 0 0 0-.29.67c0 .21-.08.42.07.58s.19.38.34.44.19.2.32.18a1.43 1.43 0 0 1 .52-.1c.24 0 .49.16.52.13a1.94 1.94 0 0 1 .22-.65c.19-.25.39-.67.73-.75s.53-.17.68-.13.24.13.24 0a.69.69 0 0 0-.35-.38c-.21-.19-.3-.48-.74-.53s-.6-.27-1-.26a5.72 5.72 0 0 0-.72.07z"/><path fill="#ffffff" d="M7.42 4.32A.86.86 0 0 1 7 3.87c-.08-.21-.3-.8-.18-1s.05-.55.26-.59a1.82 1.82 0 0 1 .54 0 .59.59 0 0 1 .29.09s.09.04.09-.08.06-.08 0-.11-.18 0-.32-.14-.29-.38-.2-.51A2.65 2.65 0 0 1 8 1.08a1.24 1.24 0 0 1 .9-.24 1.33 1.33 0 0 1 .46.25 2.39 2.39 0 0 1 .41.36 1.31 1.31 0 0 1 .17.35c0 .07.1.08.11 0s0-.18 0-.23a1.36 1.36 0 0 1-.46-.38C9.43.95 9.12.68 9.25.45A.72.72 0 0 1 9.7.06a2.37 2.37 0 0 1 .9 0 1.24 1.24 0 0 1 .64.35 3.63 3.63 0 0 0 .46.59.61.61 0 0 1 .2.51.39.39 0 0 1-.23.34c-.09 0-.14.07-.19.07s.15-.09.37.05.48.16.63.31a.75.75 0 0 1 .23.51 1 1 0 0 1-.06.52c-.08.09-.25.33-.4.33a1 1 0 0 1-.41-.06.31.31 0 0 1-.14-.11.63.63 0 0 0 0 .23c0 .11-.23.19-.22.09s.08-.31.08-.34a.3.3 0 0 0-.17-.19c-.09 0-.11-.08-.18-.15s-.08.14-.07.2a2.72 2.72 0 0 1 0 .33l-.38-.05.06-.26a.47.47 0 0 0 .08-.18c0-.1-.21.19-.23.26s-.07.23-.12.19-.14-.1-.1-.23a1.88 1.88 0 0 1 .22-.39l.14-.15s.07 0 0-.16a.36.36 0 0 1-.07-.42l.03-.25a.25.25 0 0 1-.24 0l-.28-.16s.09 0 0 .25-.16.28-.28.5a1.39 1.39 0 0 0-.14.52c0 .11 0 .42-.07.41a.16.16 0 0 1-.13-.14 2 2 0 0 1 0-.45c0-.14.08-.29.1-.39s.09-.23.09-.27-.09.12-.22.15-.25.14-.33.14-.11.09-.13.2 0 .15 0 .31a1.71 1.71 0 0 1-.14.4c0 .08-.25.15-.25.09s.11-.21.11-.35a3.24 3.24 0 0 1 .07-.49A1.39 1.39 0 0 1 9 2.47a.47.47 0 0 0-.2-.16 1.08 1.08 0 0 0-.33-.09.17.17 0 0 0-.13.11 1.24 1.24 0 0 0-.08.36 4.23 4.23 0 0 0 0 .53c0 .12.09.24 0 .37s-.16.35-.2.27 0-.23 0-.31v-.31c0-.09-.13.11-.12.19s0 .3-.07.2a.7.7 0 0 1-.06-.44c0-.13.17-.24.12-.4s-.13-.24-.27-.22-.33 0-.4.11a.38.38 0 0 0-.04.32c0 .08-.09.36 0 .54s.09.38.19.53a.19.19 0 0 1 .01.25zm.66-2.49c.14.08.2.16.29.14a3.29 3.29 0 0 1 .63.17c.23.06.18.07.34.07A.29.29 0 0 0 9.58 2a.41.41 0 0 0 0-.37 1.06 1.06 0 0 0-.28-.32 1 1 0 0 0-.5-.11 1.46 1.46 0 0 0-.32 0c-.14 0-.34.17-.45.26s0 .31 0 .31-.09-.02.05.06zM9.61.75a.85.85 0 0 0 .27.3c.1 0 .26.3.36.33s.14.16.27.19a3.5 3.5 0 0 0 .39.16 1.1 1.1 0 0 0 .48-.06c.12 0 .21-.15.15-.27a1.93 1.93 0 0 0-.22-.35A1.79 1.79 0 0 0 11 .63a.75.75 0 0 0-.5-.25 3.31 3.31 0 0 0-.63 0 .36.36 0 0 0-.27.18.78.78 0 0 0 .01.19zM11 2.3a.23.23 0 0 0 0 .24c.06.09.14.26.25.32s.34.16.4.21a1.14 1.14 0 0 0 .32.2.26.26 0 0 0 .28-.07c.05-.08.19-.14.16-.28s.06-.18-.21-.4a2.11 2.11 0 0 0-.56-.37c-.22-.1-.26-.14-.42-.06s-.11 0-.12 0a1 1 0 0 1-.1.21zM6.64 5.53s.15 0 .23.09 0 .18 0 .21a.44.44 0 0 1-.2.17c-.08 0-.07-.11-.09-.2a1.51 1.51 0 0 1 .06-.27zm0 .68c.12-.08.37-.15.35-.28s.06-.32 0-.39-.14-.17-.25-.17-.28 0-.31.12-.11.35 0 .44a3.91 3.91 0 0 0 .25.28z"/></svg>